<svg id="Layer_1" data-name="Layer 1" xmlns="http://www.w3.org/2000/svg" viewBox="0 0 136.99 35.35">
  <g>
    <path d="M1.79,27V8.81h8.73a3.49,3.49,0,0,1,2.6,1.1,3.57,3.57,0,0,1,1.1,2.62v4.61a3.7,3.7,0,0,1-3.7,3.69H4.28V27a1.21,1.21,0,0,1-1.23,1.23,1.25,1.25,0,0,1-.89-.35A1.2,1.2,0,0,1,1.79,27Zm2.49-8.67h6.24a1.2,1.2,0,0,0,.87-.36,1.19,1.19,0,0,0,.36-.87V12.53a1.19,1.19,0,0,0-.36-.87,1.2,1.2,0,0,0-.87-.36H4.28Z" fill="#231f20"/>
    <path d="M29,10.61l2.71,5.52a5.42,5.42,0,0,1,0,4.88L29,26.47a3,3,0,0,1-2.92,1.8,3.16,3.16,0,0,1-1.77-.51,3.31,3.31,0,0,1-1.18-1.29L20.43,21a5.18,5.18,0,0,1-.55-2.43,5.29,5.29,0,0,1,.55-2.45l2.72-5.52a3.1,3.1,0,0,1,3-1.8A3,3,0,0,1,29,10.61Zm-3.75,1.23L22.73,17a3.63,3.63,0,0,0-.36,1.53,3.48,3.48,0,0,0,.36,1.54l2.62,5.24a.74.74,0,0,0,.75.48.77.77,0,0,0,.71-.48l2.64-5.24a3.66,3.66,0,0,0,.37-1.54A3.39,3.39,0,0,0,29.45,17l-2.58-5.18a.81.81,0,0,0-.77-.57A.91.91,0,0,0,25.27,11.84Z" fill="#231f20"/>
    <path d="M38,27v-17a1.24,1.24,0,0,1,.36-.9,1.24,1.24,0,0,1,2.11.87v5.82l7.88-6.73a1.31,1.31,0,0,1,.92-.32,1.12,1.12,0,0,1,.86.37,1.21,1.21,0,0,1,.35.87,1,1,0,0,1-.4.84l-8.93,7.59,8.94,7.72a1,1,0,0,1,.37.8,1.29,1.29,0,0,1-.36.88,1.17,1.17,0,0,1-.89.39,1.35,1.35,0,0,1-.89-.33l-7.85-6.76V27a1.19,1.19,0,0,1-.36.88,1.22,1.22,0,0,1-.88.35A1.23,1.23,0,0,1,38,27Z" fill="#231f20"/>
    <path d="M67.32,11.3H58.61v6h3.75a1.2,1.2,0,0,1,.87.36,1.23,1.23,0,0,1,.37.87,1.21,1.21,0,0,1-.36.89,1.16,1.16,0,0,1-.88.37H58.61v6h8.74A1.25,1.25,0,0,1,68.58,27a1.17,1.17,0,0,1-.38.88,1.26,1.26,0,0,1-.88.35H56.15V8.81H67.32a1.19,1.19,0,0,1,.88.37,1.21,1.21,0,0,1,.38.89,1.16,1.16,0,0,1-.38.86A1.23,1.23,0,0,1,67.32,11.3Z" fill="#231f20"/>
    <path d="M74.27,28.27V10a1.23,1.23,0,0,1,.37-.87,1.22,1.22,0,0,1,1.73,0,1.23,1.23,0,0,1,.37.87V25.81h8.7a1.22,1.22,0,0,1,.88.36,1.2,1.2,0,0,1,0,1.75,1.26,1.26,0,0,1-.88.35Z" fill="#231f20"/>
  </g>
  <path d="M94.57,30.35l3-5.11a9.21,9.21,0,0,1,9-15.66l3-5.11A15,15,0,0,0,94.57,30.35Zm22-4.54a15,15,0,0,0-4-19.54l-2.94,5.11a9.22,9.22,0,0,1-9,15.64l-3,5.11A15.05,15.05,0,0,0,116.57,25.81Z" fill="#231f20" stroke="#231f20" stroke-miterlimit="10" stroke-width="2"/>
  <circle cx="103.57" cy="18.35" r="4.56" fill="#231f20" stroke="#231f20" stroke-miterlimit="10" stroke-width="0.75"/>
  <path d="M128.8,8.81h4.08a1.19,1.19,0,0,1,.88.36,1.23,1.23,0,0,1,0,1.77,1.22,1.22,0,0,1-.85.36H129a1.22,1.22,0,0,0-1,.53l-3.45,4.44a2.22,2.22,0,0,0-.43,1.47v6.81a1.23,1.23,0,0,0,.35.9,1.19,1.19,0,0,0,.88.36h5a1.18,1.18,0,0,0,.86-.36,1.21,1.21,0,0,0,.37-.87V21.92H129a1.24,1.24,0,0,1-.88-2.11,1.21,1.21,0,0,1,.88-.35h5v5.12a3.7,3.7,0,0,1-3.69,3.69h-5a3.58,3.58,0,0,1-2.63-1.08,3.53,3.53,0,0,1-1.09-2.61V17.77a4.84,4.84,0,0,1,1-3.09l3.63-4.61a3.07,3.07,0,0,1,1.11-.9A3.19,3.19,0,0,1,128.8,8.81Z" fill="#231f20"/>
</svg>
