<?xml version="1.0" encoding="utf-8"?>
<!-- Generator: Adobe Illustrator 25.0.0, SVG Export Plug-In . SVG Version: 6.00 Build 0)  -->
<svg version="1.1" id="Layer_1" xmlns="http://www.w3.org/2000/svg" xmlns:xlink="http://www.w3.org/1999/xlink" x="0px" y="0px"
	 viewBox="0 0 148.89 56" style="enable-background:new 0 0 148.89 56;" xml:space="preserve">
<style type="text/css">
	.st0{fill:#FFCB05;stroke:#3C5AA6;stroke-width:2;stroke-miterlimit:10;}
</style>
<g>
	<path class="st0" d="M123.94,49.56c-1-0.09-2.01-0.29-3.03-0.58c-4.3-1.27-7.45-3.77-9.43-7.52c-1.98-3.75-2.73-8.29-2.25-13.64
		c0.37-3.52,1.57-6.75,3.59-9.67c2.02-2.92,4.54-5.22,7.55-6.9c3.01-1.67,6.19-2.4,9.54-2.17c4.65,0.59,8.44,3.15,11.34,7.66
		l-4.78,3.96c-0.69-0.97-1.57-1.89-2.64-2.77c-2.17-1.64-4.13-2.54-5.89-2.71c-0.25-0.02-0.9-0.02-1.96,0.01
		c-1.06,0.03-2.21,0.51-3.45,1.43c-2.69,1.87-4.21,4.7-4.56,8.49c-0.15,3.39,0.62,6.34,2.31,8.85c1.7,2.51,4.13,3.94,7.31,4.28
		c2.05,0.08,3.75-0.55,5.12-1.89c1.36-1.34,2.27-3.08,2.74-5.23l-6.76-1.27l1.26-6.21l16.01,2.04l-0.48,7.35l-1.76-0.33
		c-1.05,4.65-2.82,8.3-5.29,10.95c-2.47,2.65-5,4.33-7.59,5.05C128.26,49.48,125.96,49.75,123.94,49.56z"/>
</g>
<g>
	<path class="st0" d="M79.01,46.38l6.94-36.29l-2.9-0.33l1.94-7.04l11.58,3.71l-7.42,32.65l16.68,0.51l-1.8,8.52L79.01,46.38z"/>
</g>
<g>
	<path class="st0" d="M15.92,52.15L8.58,16.38l-3.66,0.8L2.15,6.89L4.47,6.3C6.03,5.91,7.72,5.6,9.52,5.35
		c1.81-0.25,3.36-0.39,4.67-0.44c1.27-0.05,2.91-0.03,4.92,0.06c2.01,0.09,4.24,0.6,6.68,1.54c2.44,0.94,4.46,2.49,6.07,4.65
		c1.68,2.45,2.56,4.81,2.63,7.1c0.01,0.26-0.02,1.09-0.09,2.48c-0.07,1.39-0.8,3.11-2.2,5.15c-1.4,2.05-3.05,3.75-4.96,5.11
		c-1.91,1.36-3.72,2.27-5.43,2.73l1.32,17.68L15.92,52.15z M21.42,29.13l1.03-0.4c0.71-0.27,1.5-0.7,2.37-1.28
		c0.87-0.58,1.67-1.33,2.4-2.24c0.69-0.91,1.08-2,1.18-3.28l-0.02-0.46c-0.08-2.31-0.76-3.9-2.05-4.77
		c-1.29-0.88-2.64-1.29-4.05-1.23c-0.61,0.02-1.27,0.13-1.96,0.31L21.42,29.13z"/>
</g>
<g>
	<path class="st0" d="M105.54,40.6c-2.89-0.05-5.12-1.03-6.69-2.94s-2.34-4.42-2.28-7.55c0.04-2.11,0.69-4.11,1.96-6
		c1.27-1.89,2.9-3.43,4.87-4.6s4.04-1.75,6.19-1.71c2.5,0.04,4.61,1.03,6.34,2.95c1.73,1.92,2.57,4.27,2.52,7.04l-0.01,0.36
		c-0.25,2.75-1.04,5.05-2.35,6.91c-1.31,1.86-2.91,3.26-4.8,4.19S107.49,40.63,105.54,40.6z M109.03,31.09
		c1.56,0.03,2.87-0.54,3.93-1.71c0.83-0.95,1.29-1.78,1.36-2.47c0.07-0.69,0.11-1.1,0.11-1.24c0.02-1.12-0.38-2.17-1.21-3.15
		c0.26,0.49,0.38,0.99,0.37,1.49c0,0.29-0.05,0.59-0.14,0.92c-0.28,0.81-0.71,1.35-1.29,1.61c-0.58,0.27-1.1,0.39-1.57,0.38
		c-0.37-0.01-0.76-0.08-1.16-0.22c-0.83-0.37-1.42-0.86-1.77-1.48c-0.35-0.62-0.52-1.2-0.51-1.73c0-0.26,0.05-0.55,0.14-0.86
		c0.54-1.35,1.55-2.02,3.04-1.99c-0.55-0.19-1.09-0.28-1.62-0.29c-1-0.02-1.97,0.31-2.91,0.97c-1.45,1.08-2.2,2.54-2.23,4.38
		c0.07,1.65,0.64,2.95,1.71,3.91C106.37,30.57,107.61,31.06,109.03,31.09z"/>
</g>
<g>
	<path class="st0" d="M70.89,47.79L52.43,35.22l0.35,11.15l-7.9,1.21l-1.06-35.65l-2.36,0.12l-0.66-5.25L51.7,5.54l0.37,18.79
		l8.64-12.18l7.93,5.07L54.92,30.19l16.66,7.07L70.89,47.79z"/>
</g>
<g>
	<path class="st0" d="M71.28,42.02c-2.66-0.05-5.09-0.9-7.27-2.57c-1.9-1.46-3.14-3.43-3.71-5.91c-0.21-1.02-0.3-2.02-0.29-3.01
		c0.01-0.77,0.14-1.79,0.38-3.06c0.24-1.27,0.89-2.6,1.96-3.99c2.87-3.6,6.5-5.37,10.91-5.29c2.95,0.05,5.47,1,7.57,2.84
		c0.08,0.05,0.34,0.29,0.77,0.72c0.43,0.44,0.65,0.67,0.65,0.69c-0.15,0.15-1.82,2.15-5.02,5.99l-4.99,5.99
		c2.42-0.22,4.27-0.91,5.54-2.05c0.62-0.52,1.1-0.97,1.44-1.36l0.47-0.55l0.82,0.74c1.15,1.14,2.37,2.29,3.66,3.43l0.79,0.77
		c0,0.02-0.03,0.06-0.09,0.13l-0.41,0.46c-2.04,2.12-4.22,3.68-6.53,4.67C75.68,41.6,73.47,42.06,71.28,42.02z M68.25,33.92
		l7.6-9.47c-0.26-0.22-0.41-0.37-0.45-0.44c-0.34-0.29-0.77-0.58-1.28-0.88c-0.83-0.46-1.67-0.69-2.51-0.7
		c-0.51-0.01-1.11,0.11-1.79,0.37c-0.68,0.25-1.43,0.83-2.26,1.74c-0.83,0.91-1.32,1.72-1.47,2.42c-0.16,0.7-0.24,1.25-0.24,1.65
		c-0.02,1.12,0.3,2.25,0.96,3.38c0.34,0.6,0.67,1.07,0.99,1.4C67.84,33.45,67.99,33.63,68.25,33.92z"/>
</g>
<g>
	<path class="st0" d="M34.54,45.59c-2.89,0-5.14-0.94-6.74-2.82c-1.61-1.88-2.41-4.38-2.41-7.51c0-2.11,0.62-4.12,1.86-6.04
		c1.24-1.91,2.84-3.48,4.79-4.69c1.96-1.21,4.01-1.81,6.16-1.81c2.5,0,4.63,0.95,6.39,2.84c1.76,1.89,2.64,4.22,2.64,7v0.36
		c-0.2,2.75-0.95,5.06-2.23,6.95c-1.28,1.88-2.86,3.31-4.73,4.27C38.39,45.1,36.48,45.59,34.54,45.59z M37.85,36.02
		c1.56,0,2.86-0.59,3.9-1.78c0.82-0.97,1.26-1.8,1.32-2.49c0.06-0.69,0.09-1.1,0.09-1.24c0-1.12-0.42-2.17-1.26-3.13
		c0.27,0.48,0.4,0.98,0.4,1.49c0,0.29-0.04,0.59-0.12,0.92c-0.27,0.81-0.69,1.36-1.26,1.63c-0.57,0.28-1.1,0.41-1.57,0.41
		c-0.37,0-0.76-0.07-1.17-0.2c-0.84-0.35-1.44-0.84-1.8-1.45c-0.36-0.62-0.54-1.19-0.54-1.72c0-0.26,0.04-0.55,0.12-0.86
		c0.51-1.36,1.52-2.05,3.01-2.05c-0.55-0.18-1.1-0.26-1.63-0.26c-1,0-1.97,0.34-2.89,1.02c-1.43,1.1-2.15,2.57-2.15,4.42
		c0.1,1.65,0.7,2.94,1.78,3.88C35.19,35.55,36.44,36.02,37.85,36.02z"/>
</g>
<g>
	<path class="st0" d="M78.69,12.51l-6.14,4.61l-1.86-2.21l5.47-5.43L78.69,12.51z"/>
</g>
</svg>
